<svg width="226" height="36" viewBox="0 0 226 36" fill="none" xmlns="http://www.w3.org/2000/svg">
<path fill-rule="evenodd" clip-rule="evenodd" d="M12.7318 3.3875L4.80655 5.81023C3.98858 6.06028 3.42577 6.81001 3.414 7.66526L3.11855 29.1353C3.09112 31.129 5.01032 32.5739 6.9187 31.9962L14.4725 29.7096L14.9227 5.03992C14.9438 3.88766 13.8339 3.05058 12.7318 3.3875ZM17.3581 31.892L17.8471 5.09328C17.9044 1.95334 14.8799 -0.327713 11.8767 0.590386L3.95147 3.01312C1.91789 3.63478 0.518649 5.49873 0.489389 7.62501L0.193939 29.0951C0.13927 33.0678 3.96348 35.9467 7.76612 34.7956L17.3581 31.892Z" fill="#064EA4"/>
<path fill-rule="evenodd" clip-rule="evenodd" d="M17.0037 10.4418L16.7277 29.032L24.2996 26.7982C25.5439 26.4311 26.4018 25.2934 26.4124 23.9961L26.5246 10.3268C26.5375 8.75304 24.9854 7.64297 23.5003 8.16373L17.0037 10.4418ZM25.1273 29.6035C27.6067 28.8721 29.316 26.6051 29.3372 24.0201L29.4494 10.3508C29.4789 6.75144 25.9292 4.21256 22.5325 5.40361L14.1094 8.35715L13.7441 32.9617L25.1273 29.6035Z" fill="#064EA4"/>
<path fill-rule="evenodd" clip-rule="evenodd" d="M12.334 3.4457L4.52062 5.9087C3.96925 6.08251 3.55976 6.54778 3.45739 7.11676C3.12455 8.96661 4.91157 10.4875 6.68443 9.86323L14.8938 6.97244V5.32274C14.8938 3.99294 13.6023 3.0459 12.334 3.4457ZM17.8187 9.04343V5.32274C17.8187 2.01664 14.6078 -0.337839 11.4546 0.656126L3.64126 3.11913C2.05309 3.61977 0.873601 4.95992 0.578722 6.59881C-0.151218 10.6557 3.76787 13.9912 7.65591 12.6221L17.8187 9.04343Z" fill="#064EA4"/>
<path d="M44.2607 27V6.52889H57.2745V9.04392H47.3607V15.4192H56.3972V17.8758H47.3607V24.485H57.2745V27H44.2607Z" fill="#0F437F"/>
<path d="M67.0031 27.351C65.5994 27.351 64.3614 27.0195 63.2891 26.3567C62.2168 25.6938 61.3784 24.7872 60.7741 23.6369C60.1697 22.4866 59.8675 21.1804 59.8675 19.7182C59.8675 18.2559 60.1697 16.9594 60.7741 15.8286C61.3784 14.6784 62.2168 13.7815 63.2891 13.1381C64.3809 12.4753 65.6286 12.1438 67.0324 12.1438C68.1827 12.1438 69.1867 12.368 70.0446 12.8165C70.9219 13.2649 71.6043 13.8985 72.0917 14.7173V5.944H75.1916V27H72.4134L72.0917 24.7482C71.6238 25.4306 70.9804 26.035 70.1615 26.5614C69.3427 27.0878 68.2899 27.351 67.0031 27.351ZM67.5588 24.6605C68.8845 24.6605 69.9666 24.2023 70.8049 23.286C71.6628 22.3697 72.0917 21.1901 72.0917 19.7474C72.0917 18.2852 71.6628 17.1056 70.8049 16.2088C69.9666 15.2925 68.8845 14.8343 67.5588 14.8343C66.233 14.8343 65.1412 15.2925 64.2834 16.2088C63.4256 17.1056 62.9966 18.2852 62.9966 19.7474C62.9966 20.7027 63.1916 21.5508 63.5815 22.2917C63.9715 23.0325 64.5076 23.6174 65.19 24.0463C65.8918 24.4558 66.6814 24.6605 67.5588 24.6605Z" fill="#0F437F"/>
<path d="M83.9949 27.351C82.2402 27.351 80.856 26.8051 79.8422 25.7133C78.8478 24.6215 78.3507 22.9935 78.3507 20.8294V12.4948H81.4506V20.5078C81.4506 23.3152 82.6009 24.719 84.9014 24.719C86.0517 24.719 86.9973 24.3095 87.7382 23.4907C88.479 22.6719 88.8495 21.5021 88.8495 19.9814V12.4948H91.9494V27H89.2004L88.9664 24.4558C88.518 25.3526 87.8551 26.0642 86.9778 26.5906C86.12 27.0975 85.1257 27.351 83.9949 27.351Z" fill="#0F437F"/>
<path d="M102.308 27.351C100.885 27.351 99.6081 27.0293 98.4773 26.3859C97.366 25.7425 96.4887 24.8554 95.8453 23.7247C95.2214 22.5744 94.9095 21.2486 94.9095 19.7474C94.9095 18.2462 95.2214 16.9302 95.8453 15.7994C96.4887 14.6491 97.366 13.7523 98.4773 13.1089C99.6081 12.4655 100.885 12.1438 102.308 12.1438C104.102 12.1438 105.603 12.6117 106.812 13.5476C108.04 14.4834 108.83 15.7507 109.181 17.3494H105.935C105.74 16.55 105.311 15.9261 104.648 15.4777C103.985 15.0293 103.205 14.8051 102.308 14.8051C101.548 14.8051 100.846 15 100.203 15.39C99.5593 15.7604 99.0427 16.316 98.6528 17.0569C98.2628 17.7783 98.0679 18.6751 98.0679 19.7474C98.0679 20.8197 98.2628 21.7263 98.6528 22.4671C99.0427 23.1885 99.5593 23.7441 100.203 24.1341C100.846 24.524 101.548 24.719 102.308 24.719C103.205 24.719 103.985 24.4948 104.648 24.0463C105.311 23.5979 105.74 22.9643 105.935 22.1454H109.181C108.849 23.7052 108.069 24.9627 106.841 25.918C105.613 26.8733 104.102 27.351 102.308 27.351Z" fill="#0F437F"/>
<path d="M116.999 27.351C115.771 27.351 114.757 27.1463 113.957 26.7368C113.158 26.3274 112.563 25.7913 112.174 25.1284C111.784 24.446 111.589 23.7052 111.589 22.9058C111.589 21.5021 112.135 20.3908 113.226 19.5719C114.318 18.7531 115.878 18.3437 117.905 18.3437H121.707V18.0805C121.707 16.9497 121.395 16.1016 120.771 15.5362C120.167 14.9708 119.377 14.6881 118.403 14.6881C117.545 14.6881 116.794 14.9026 116.151 15.3315C115.527 15.7409 115.147 16.355 115.01 17.1739H111.91C112.008 16.1211 112.359 15.2243 112.963 14.4834C113.587 13.723 114.367 13.1479 115.303 12.758C116.258 12.3485 117.301 12.1438 118.432 12.1438C120.459 12.1438 122.029 12.68 123.14 13.7523C124.252 14.8051 124.807 16.2478 124.807 18.0805V27H122.117L121.853 24.5143C121.444 25.3136 120.849 25.9862 120.07 26.5321C119.29 27.078 118.266 27.351 116.999 27.351ZM117.613 24.8359C118.451 24.8359 119.153 24.641 119.719 24.2511C120.304 23.8416 120.752 23.3055 121.064 22.6426C121.395 21.9797 121.6 21.2486 121.678 20.4493H118.227C116.999 20.4493 116.122 20.6637 115.595 21.0926C115.088 21.5216 114.835 22.0577 114.835 22.7011C114.835 23.364 115.078 23.8904 115.566 24.2803C116.073 24.6507 116.755 24.8359 117.613 24.8359Z" fill="#0F437F"/>
<path d="M133.762 27C132.339 27 131.208 26.6588 130.37 25.9765C129.531 25.2746 129.112 24.0366 129.112 22.2624V15.0975H126.626V12.4948H129.112L129.492 8.80996H132.212V12.4948H136.306V15.0975H132.212V22.2624C132.212 23.0618 132.378 23.6174 132.709 23.9294C133.06 24.2218 133.655 24.368 134.493 24.368H136.16V27H133.762Z" fill="#0F437F"/>
<path d="M140.8 9.74578C140.215 9.74578 139.728 9.57032 139.338 9.21938C138.968 8.84895 138.782 8.39079 138.782 7.84489C138.782 7.299 138.968 6.85058 139.338 6.49965C139.728 6.12922 140.215 5.944 140.8 5.944C141.385 5.944 141.863 6.12922 142.233 6.49965C142.623 6.85058 142.818 7.299 142.818 7.84489C142.818 8.39079 142.623 8.84895 142.233 9.21938C141.863 9.57032 141.385 9.74578 140.8 9.74578ZM139.25 27V12.4948H142.35V27H139.25Z" fill="#0F437F"/>
<path d="M152.77 27.351C151.386 27.351 150.138 27.039 149.027 26.4151C147.935 25.7718 147.067 24.8847 146.424 23.7539C145.781 22.6036 145.459 21.2681 145.459 19.7474C145.459 18.2267 145.781 16.9009 146.424 15.7702C147.087 14.6199 147.974 13.7328 149.085 13.1089C150.197 12.4655 151.435 12.1438 152.799 12.1438C154.184 12.1438 155.422 12.4655 156.513 13.1089C157.625 13.7328 158.502 14.6199 159.145 15.7702C159.808 16.9009 160.14 18.2267 160.14 19.7474C160.14 21.2681 159.808 22.6036 159.145 23.7539C158.502 24.8847 157.625 25.7718 156.513 26.4151C155.402 27.039 154.154 27.351 152.77 27.351ZM152.77 24.6897C153.511 24.6897 154.193 24.5045 154.817 24.1341C155.461 23.7636 155.977 23.2177 156.367 22.4964C156.757 21.7555 156.952 20.8392 156.952 19.7474C156.952 18.6556 156.757 17.749 156.367 17.0277C155.997 16.2868 155.49 15.7312 154.847 15.3607C154.223 14.9903 153.54 14.8051 152.799 14.8051C152.059 14.8051 151.366 14.9903 150.723 15.3607C150.099 15.7312 149.592 16.2868 149.202 17.0277C148.812 17.749 148.617 18.6556 148.617 19.7474C148.617 20.8392 148.812 21.7555 149.202 22.4964C149.592 23.2177 150.099 23.7636 150.723 24.1341C151.347 24.5045 152.029 24.6897 152.77 24.6897Z" fill="#0F437F"/>
<path d="M163.035 27V12.4948H165.784L166.018 15.039C166.467 14.1422 167.12 13.4403 167.978 12.9334C168.855 12.407 169.859 12.1438 170.99 12.1438C172.744 12.1438 174.119 12.6897 175.113 13.7815C176.127 14.8733 176.634 16.5013 176.634 18.6654V27H173.563V18.987C173.563 16.1796 172.413 14.7758 170.112 14.7758C168.962 14.7758 168.007 15.1853 167.246 16.0041C166.506 16.823 166.135 17.9927 166.135 19.5134V27H163.035Z" fill="#0F437F"/>
<path d="M181.583 9.74578C180.998 9.74578 180.51 9.57032 180.12 9.21938C179.75 8.84895 179.565 8.39079 179.565 7.84489C179.565 7.299 179.75 6.85058 180.12 6.49965C180.51 6.12922 180.998 5.944 181.583 5.944C182.167 5.944 182.645 6.12922 183.016 6.49965C183.406 6.85058 183.6 7.299 183.6 7.84489C183.6 8.39079 183.406 8.84895 183.016 9.21938C182.645 9.57032 182.167 9.74578 181.583 9.74578ZM180.033 27V12.4948H183.133V27H180.033Z" fill="#0F437F"/>
<path d="M193.64 27.351C192.217 27.351 190.94 27.0293 189.809 26.3859C188.698 25.7425 187.821 24.8554 187.177 23.7247C186.553 22.5744 186.241 21.2486 186.241 19.7474C186.241 18.2462 186.553 16.9302 187.177 15.7994C187.821 14.6491 188.698 13.7523 189.809 13.1089C190.94 12.4655 192.217 12.1438 193.64 12.1438C195.434 12.1438 196.935 12.6117 198.144 13.5476C199.372 14.4834 200.162 15.7507 200.513 17.3494H197.267C197.072 16.55 196.643 15.9261 195.98 15.4777C195.317 15.0293 194.537 14.8051 193.64 14.8051C192.88 14.8051 192.178 15 191.535 15.39C190.891 15.7604 190.375 16.316 189.985 17.0569C189.595 17.7783 189.4 18.6751 189.4 19.7474C189.4 20.8197 189.595 21.7263 189.985 22.4671C190.375 23.1885 190.891 23.7441 191.535 24.1341C192.178 24.524 192.88 24.719 193.64 24.719C194.537 24.719 195.317 24.4948 195.98 24.0463C196.643 23.5979 197.072 22.9643 197.267 22.1454H200.513C200.181 23.7052 199.401 24.9627 198.173 25.918C196.945 26.8733 195.434 27.351 193.64 27.351Z" fill="#0F437F"/>
<path d="M209.422 27L215.739 16.6475L209.364 6.52889H212.903L217.728 14.1909L222.232 6.52889H225.712L219.366 16.7937L225.799 27H222.261L217.406 19.2795L212.903 27H209.422Z" fill="#0F437F"/>
</svg>
